<svg xmlns="http://www.w3.org/2000/svg" version="1.1" xmlns:xlink="http://www.w3.org/1999/xlink" xmlns:svgjs="http://svgjs.dev/svgjs" width="1366" height="607" preserveAspectRatio="none" viewBox="0 0 1366 607"><g mask="url(&quot;#SvgjsMask1302&quot;)" fill="none"><rect width="1366" height="607" x="0" y="0" fill="url(&quot;#SvgjsLinearGradient1303&quot;)"></rect><path d="M1366 0L1160.72 0L1366 135.76z" fill="rgba(255, 255, 255, .1)"></path><path d="M1160.72 0L1366 135.76L1366 263.84000000000003L615.73 0z" fill="rgba(255, 255, 255, .075)"></path><path d="M615.73 0L1366 263.84000000000003L1366 347.5L327.36 0z" fill="rgba(255, 255, 255, .05)"></path><path d="M327.3600000000001 0L1366 347.5L1366 500.89L145.46000000000012 0z" fill="rgba(255, 255, 255, .025)"></path><path d="M0 607L513.58 607L0 306.9z" fill="rgba(0, 0, 0, .1)"></path><path d="M0 306.9L513.58 607L859.8800000000001 607L0 144.54999999999998z" fill="rgba(0, 0, 0, .075)"></path><path d="M0 144.54999999999995L859.8800000000001 607L919.4100000000001 607L0 110.48999999999995z" fill="rgba(0, 0, 0, .05)"></path><path d="M0 110.48999999999995L919.4100000000001 607L1232.0300000000002 607L0 47.84999999999995z" fill="rgba(0, 0, 0, .025)"></path></g><defs><mask id="SvgjsMask1302"><rect width="1366" height="607" fill="#ffffff"></rect></mask><linearGradient x1="13.89%" y1="-31.26%" x2="86.11%" y2="131.26%" gradientUnits="userSpaceOnUse" id="SvgjsLinearGradient1303"><stop stop-color="#0e2a47" offset="0"></stop><stop stop-color="#00459e" offset="1"></stop></linearGradient></defs></svg>